<svg data-v-0dd9719b="" version="1.0" xmlns="http://www.w3.org/2000/svg" xmlns:xlink="http://www.w3.org/1999/xlink" width="100%" height="100%" viewBox="0 0 340.000000 250.000000" preserveAspectRatio="xMidYMid meet" color-interpolation-filters="sRGB" style="margin: auto;"> <rect data-v-0dd9719b="" x="0" y="0" width="100%" height="100%" fill="#fff" fill-opacity="1" class="background"></rect> <rect data-v-0dd9719b="" x="0" y="0" width="100%" height="100%" fill="url(#watermark)" fill-opacity="1" class="watermarklayer"></rect> <g data-v-0dd9719b="" fill="#0076fd" class="icon-text-wrapper icon-svg-group iconsvg" transform="translate(48.59556579589844,82.65702056884766)"><g class="iconsvg-imagesvg" transform="translate(0,0)"><g><rect fill="#0076fd" fill-opacity="0" stroke-width="2" x="0" y="0" width="59.99999999999999" height="84.68595624558927" class="image-rect"></rect> <svg x="0" y="0" width="59.99999999999999" height="84.68595624558927" filtersec="colorsb5962882679" class="image-svg-svg primary" style="overflow: visible;"><svg xmlns="http://www.w3.org/2000/svg" viewBox="0.0040740966796875 0.002770662307739258 103.05374145507812 145.45274353027344"><title>资源 2</title><g><g><path d="M14.57 91a173.53 173.53 0 0 1 8.51-17.31c6.07-10.57 14.21-19.49 22.38-28.4a118.78 118.78 0 0 0 11.09-13.72c.37-.56.52-1.54 1.38-1.42s1 1.22 1.16 2c1.73 9.34 1.44 18.34-3.9 26.71-3 4.66-6.81 8.58-10.33 12.77-9 10.76-14.13 22.89-13.06 37.21A50.17 50.17 0 0 0 33.64 119c.27.92 1.18 2.1.29 2.83s-1.87-.35-2.7-.84a66.1 66.1 0 0 1-21.9-20.39c-6.1-9.08-9.92-18.91-9.25-30C.79 58.74 6 48.55 12.75 39.09c8.49-11.89 19-21.9 29.61-31.84 2.08-1.94 4.1-3.94 6.17-5.89.64-.6 1.22-1.63 2.23-1.29s.94 1.46 1.11 2.33c1.73 9-.33 17.1-5.59 24.5-4.08 5.75-9.42 10.36-13.93 15.72-8.44 10-15.72 20.74-18.41 33.88a28.8 28.8 0 0 0 .63 14.5z" fill="#0076fd"></path><path d="M88.57 55.35c-2.93 5.88-5.67 11.73-9 17.31-5.93 10-13.68 18.62-21.52 27.14a139.93 139.93 0 0 0-11 13.38c-.56.78-.78 2.33-1.89 2.08s-1-1.83-1.22-2.87c-2.27-11.45.08-21.74 7.77-30.7C56.34 76.3 61.3 71.19 64.86 65a48.57 48.57 0 0 0 4.83-38c-.26-1-1.26-2.27-.12-3.05.9-.63 1.83.52 2.68 1a64.61 64.61 0 0 1 23.89 23.82c9.68 16.44 8.86 32.86-.33 49.23A120.28 120.28 0 0 1 75 124.43c-6.65 6.56-13.41 13-20.14 19.47-.69.66-1.29 1.91-2.44 1.46s-.93-1.7-1.11-2.67c-2-10.87 1.79-20 8.87-27.95S74.75 99.49 80.32 90.4c4.83-7.88 8.62-16.09 9.62-25.41a23.15 23.15 0 0 0-1.37-9.64z" fill="#fed801"></path></g></g></svg></svg> <!----></g></g> <g transform="translate(67,14.043914794921875)"><g data-gra="path-name" fill-rule="" class="tp-name iconsvg-namesvg" transform="translate(0,0)"><g transform="scale(1)"><g><path d="M39.33-34.54L39.33-34.54 40.74-33.13Q42.06-31.46 40.17-30.01L40.17-30.01Q39.11-29.18 38.32-29.22 37.53-29.27 36.74-30.28L36.74-30.28Q35.68-31.6 34.28-33L34.28-33Q32.3-34.76 34.37-36.39L34.37-36.39Q35.9-37.53 37.35-36.39L37.35-36.39Q38.32-35.51 39.33-34.54ZM8.35-36.08L8.35-36.08 20.43-36.08Q22.81-36.08 22.81-33.71 22.81-31.33 20.43-31.33L20.43-31.33 8.35-31.33Q5.98-31.33 5.98-33.71 5.98-36.08 8.35-36.08ZM10.28-3.25L13.62-3.78 13.62-18.98Q13.62-21.49 16.22-21.49L16.22-21.49Q18.72-21.49 18.72-18.98L18.72-18.98 18.72-16.48 22.72-16.48Q25.05-16.48 25.05-14.15L25.05-14.15Q25.05-11.73 22.72-11.73L22.72-11.73 18.72-11.73 18.72-4.66 23.55-5.58Q26.15-6.02 26.37-3.38L26.37-3.38Q26.59-1.01 24.21-0.62L24.21-0.62Q19.69 0.26 5.23 2.94L5.23 2.94Q4 3.16 3.36 2.66 2.72 2.15 2.42 0.83L2.42 0.83Q1.76-1.89 4.48-2.33L4.48-2.33 5.41-2.46 5.41-16.22Q5.41-18.63 7.87-18.63L7.87-18.63Q10.28-18.63 10.28-16.22L10.28-16.22 10.28-3.25ZM26.24-22.81L26.24-22.81 5.01-22.81Q2.55-22.81 2.55-25.27 2.55-27.73 5.01-27.73L5.01-27.73 25.97-27.73Q25.8-32.43 25.75-35.2L25.75-35.2Q25.75-37.92 28.43-37.92L28.43-37.92Q31.2-37.92 31.11-35.16L31.11-35.16Q31.11-31.29 31.25-27.73L31.25-27.73 39.99-27.73Q42.45-27.73 42.45-25.27 42.45-22.81 39.99-22.81L39.99-22.81 31.55-22.81Q32.21-13.36 33.82-7.36 35.42-1.36 37.44-1.36L37.44-1.36Q38.1-1.36 38.5-3.56L38.5-3.56Q38.67-5.84 39.48-7.19 40.3-8.53 41.75-7.56L41.75-7.56Q42.54-7.03 42.78-5.56 43.02-4.09 42.85-2.72L42.85-2.72Q42.19 1.1 40.85 2.53 39.51 3.96 36.91 3.96L36.91 3.96Q28.21 3.96 26.24-22.81ZM55.15-29.93L55.15-29.93Q54.05-30.72 51.42-32.21L51.42-32.21Q49.04-33.4 50.67-35.6L50.67-35.6Q51.77-37.27 53.66-36.47L53.66-36.47Q55.68-35.55 58.54-33.84L58.54-33.84Q59.5-33.13 59.55-32.37 59.59-31.6 58.89-30.59L58.89-30.59Q57.3-28.21 55.15-29.93ZM53.13-17.93L53.13-17.93Q51.2-19.16 49.09-20.21L49.09-20.21Q46.93-21.27 48.3-23.51L48.3-23.51Q49.35-25.31 51.24-24.52L51.24-24.52Q53.92-23.33 56.34-21.97L56.34-21.97Q57.3-21.36 57.39-20.57 57.48-19.78 56.82-18.76L56.82-18.76Q55.28-16.3 53.13-17.93ZM49.26-2.11L49.26-2.11Q52.82-7.65 54.89-11.65L54.89-11.65Q56.38-14.37 58.54-12.22L58.54-12.22Q59.99-10.77 59.11-9.01L59.11-9.01Q56.6-4.04 53.75 0.83L53.75 0.83Q52.21 3.38 49.97 1.45L49.97 1.45Q48.96 0.57 48.76-0.2 48.56-0.97 49.26-2.11ZM79.85-30.19L79.85-30.19 67.72-30.19Q69.92-20.08 74.36-13.01L74.36-13.01Q78.71-19.47 80.68-28.96L80.68-28.96Q80.95-30.19 79.85-30.19ZM63.85-35.24L63.85-35.24 83.41-35.24Q84.86-35.24 85.58-34.28 86.31-33.31 86.04-31.38L86.04-31.38Q83.89-17.23 77.65-8.61L77.65-8.61Q81.17-4.7 85.25-2.33L85.25-2.33Q88.59-0.66 86.62 1.85L86.62 1.85Q85.17 3.65 82.71 2.46L82.71 2.46Q77.7-0.44 74.18-4.44L74.18-4.44Q69.92-0.18 63.85 2.68L63.85 2.68Q61.3 3.78 60.03 1.89L60.03 1.89Q59.15 0.4 59.57-0.46 59.99-1.32 61.66-2.02L61.66-2.02Q67.15-4.57 70.93-8.7L70.93-8.7Q66.09-16.08 63.24-27.25L63.24-27.25Q62.71-29.71 64.91-30.15L64.91-30.15 65.04-30.19 63.85-30.19Q61.35-30.19 61.35-32.7L61.35-32.7Q61.35-35.24 63.85-35.24ZM113.47-29.09L113.47-29.09 113.47-34.76Q113.47-37.4 116.1-37.4 118.74-37.4 118.74-34.76L118.74-34.76 118.74-31.16Q123.05-33 125.86-34.72L125.86-34.72Q127.84-35.9 129.55-34.06L129.55-34.06Q131.62-31.73 129.16-30.28L129.16-30.28Q124.85-27.95 118.74-25.84L118.74-25.84 118.74-22.59Q118.74-21.36 119.11-21.03 119.49-20.7 120.81-20.7L120.81-20.7 125.99-20.7Q126.78-20.7 127.13-21.01L127.13-21.01Q127.53-22.85 128.47-23.75 129.42-24.65 130.87-24.04L130.87-24.04Q132.58-23.33 132.1-20L132.1-20Q131.53-17.84 130.23-17.01 128.94-16.17 126.47-16.17L126.47-16.17 120.06-16.17Q116.1-16.17 114.79-17.49 113.47-18.81 113.47-22.54L113.47-22.54 113.47-24.13Q113.25-24.04 111.95-23.64 110.65-23.25 109.95-23.07L109.95-23.07Q107.75-22.54 106.92-24.43L106.92-24.43Q106.39-25.71 106.79-26.43 107.18-27.16 108.54-27.51L108.54-27.51Q110.21-27.95 113.47-29.09ZM104.63-30.76L104.63-30.76 104.63-17.71Q104.63-15.12 102-15.12 99.36-15.12 99.36-17.71L99.36-17.71 99.36-25.44Q98-24.26 97.47-23.86L97.47-23.86Q95.45-22.37 93.78-24.17L93.78-24.17Q92.68-25.4 92.81-26.35 92.94-27.29 94.35-28.21L94.35-28.21Q99.49-31.86 102.52-36.25L102.52-36.25Q103.75-38.23 106-37.44L106-37.44Q108.81-36.47 107.09-33.93L107.09-33.93Q106.04-32.48 104.63-30.76ZM115.36-12.39L115.36-10.2 130.17-10.2Q132.76-10.2 132.76-7.65 132.76-5.1 130.17-5.1L130.17-5.1 115.36-5.1 115.36 1.14Q115.36 3.91 112.54 3.91 109.73 3.91 109.73 1.14L109.73 1.14 109.73-5.1 95.01-5.1Q92.42-5.1 92.42-7.65 92.42-10.2 95.01-10.2L95.01-10.2 109.73-10.2 109.73-12.39Q109.73-15.16 112.54-15.16 115.36-15.16 115.36-12.39L115.36-12.39ZM169.19-30.23L169.19-30.23Q163.61-32.17 160.09-33.13L160.09-33.13Q157.76-33.75 158.91-36.12L158.91-36.12Q159.74-37.88 161.46-37.53L161.46-37.53Q167.04-36.3 171.17-34.85L171.17-34.85Q172.35-34.45 172.57-33.71 172.79-32.96 172.27-31.77L172.27-31.77Q171.74-30.5 171.08-30.15 170.42-29.79 169.19-30.23ZM143.39-21.45L143.39-18.15Q143.39-16.61 143.35-15.86L143.35-15.86 147.44-15.86 147.44-21.45 143.39-21.45ZM143.39-26.32L147.44-26.32 147.44-30.63Q147.44-31.73 146.34-31.73L146.34-31.73 144.49-31.73Q143.39-31.73 143.39-30.63L143.39-30.63 143.39-26.32ZM141.72-36.52L141.72-36.52 149.28-36.52Q150.6-36.52 151.39-35.73 152.18-34.94 152.18-33.62L152.18-33.62 152.18-5.41Q155.3-8.57 157.06-15.47L157.06-15.47Q157.32-16.66 156.23-16.66L156.23-16.66 155.7-16.66Q153.24-16.66 153.24-19.12L153.24-19.12Q153.24-21.62 155.7-21.62L155.7-21.62 159.65-21.62Q162.73-21.62 162.29-17.89L162.29-17.89Q160.75-7.65 156.49-2.33L156.49-2.33Q155.74-1.49 154.62-1.69 153.5-1.89 152.67-3.12L152.67-3.12Q152.58-3.21 152.42-3.38 152.27-3.56 152.18-3.65L152.18-3.65 152.18-1.89Q152.18 1.71 150.51 2.77L150.51 2.77Q149.81 3.21 148.84 3.45 147.88 3.69 146.91 3.65 145.94 3.6 145.15 3.1 144.36 2.59 144.14 1.63L144.14 1.63Q143.75 0.09 144.38-0.59 145.02-1.27 146.73-1.23L146.73-1.23Q147.44-1.23 147.44-1.93L147.44-1.93 147.44-10.94 143.13-10.94Q142.6-3.47 141.11 1.58L141.11 1.58Q140.63 2.94 139.97 3.19 139.31 3.43 138.03 2.68L138.03 2.68Q137.02 2.11 136.76 1.36 136.49 0.62 136.85-0.48L136.85-0.48Q138.78-6.72 138.78-20.17L138.78-20.17 138.78-33.62Q138.78-34.94 139.59-35.73 140.41-36.52 141.72-36.52ZM157.98-29.93L157.98-29.93 165.63-29.93Q166.95-29.93 167.76-29.11 168.57-28.3 168.57-26.98L168.57-26.98 168.57-23.25Q168.79-22.15 169.37-20.26L169.37-20.26Q171.21-22.46 172.18-23.86L172.18-23.86Q173.06-25.22 173.96-25.42 174.86-25.62 176.13-24.65L176.13-24.65Q178.51-22.85 176.04-20.52L176.04-20.52Q172.09-16.66 171.04-15.73L171.04-15.73Q173.5-9.98 176.7-6.68L176.7-6.68Q177.98-5.54 178.09-4.59 178.2-3.65 177.1-2.37L177.1-2.37Q176-1.19 175.17-1.21 174.33-1.23 173.23-2.46L173.23-2.46Q170.73-5.49 168.57-10.68L168.57-10.68 168.57-1.93Q168.57 0.04 168.11 1.19 167.65 2.33 166.51 2.94 165.37 3.56 163.81 3.78 162.25 4 160.8 3.54 159.35 3.08 158.95 1.76L158.95 1.76Q158.47 0.18 159.3-0.53 160.14-1.23 161.98-1.19L161.98-1.19 162.69-1.19Q163.52-1.23 163.52-2.02L163.52-2.02 163.52-23.77Q163.52-24.83 162.47-24.83L162.47-24.83 157.98-24.83Q155.48-24.83 155.48-27.42L155.48-27.42Q155.48-29.93 157.98-29.93Z" transform="translate(-2.2911243438720703, 37.91999816894531)"></path></g> <!----> <!----> <!----> <!----> <!----> <!----> <!----></g></g> <g data-gra="path-slogan" fill-rule="" class="tp-slogan iconsvg-slogansvg" fill="#0076fd" transform="translate(41.079437255859375,47.87999725341797)"><!----> <!----> <g transform="scale(1, 1)"><g transform="scale(1)"><path d="M5.67-7.13L5.63-7.13L3.66 0L2.44 0L0.19-8.58L1.41-8.58L3.05-1.59L3.09-1.59L5.02-8.58L6.28-8.58L8.20-1.59L8.25-1.59L9.84-8.58L11.11-8.58L8.86 0L7.64 0L5.67-7.13ZM17.86-3.19L17.86-8.58L19.03-8.58L19.03-3.05Q18.89 0.05 15.52 0.14L15.52 0.14Q12.38 0.05 12.23-2.86L12.23-2.86L12.23-8.58L13.41-8.58L13.41-3.19Q13.45-0.84 15.56-0.80L15.56-0.80Q17.86-0.84 17.86-3.19L17.86-3.19ZM21.98-5.06L26.48-5.06L26.48-8.58L27.66-8.58L27.66 0L26.48 0L26.48-3.98L21.98-3.98L21.98 0L20.81 0L20.81-8.58L21.98-8.58L21.98-5.06ZM35.11 0L34.27-2.48L30.80-2.48L29.91 0L28.73 0L31.97-8.58L33.28-8.58L36.38 0L35.11 0ZM32.53-7.31L31.17-3.52L33.84-3.52L32.58-7.31L32.53-7.31ZM38.81-8.58L43.13-1.64L43.13-8.58L44.25-8.58L44.25 0L42.94 0L38.58-6.94L38.53-6.94L38.53 0L37.41 0L37.41-8.58L38.81-8.58ZM50.53-5.06L55.03-5.06L55.03-8.58L56.20-8.58L56.20 0L55.03 0L55.03-3.98L50.53-3.98L50.53 0L49.36 0L49.36-8.58L50.53-8.58L50.53-5.06ZM63.66-3.19L63.66-8.58L64.83-8.58L64.83-3.05Q64.69 0.05 61.31 0.14L61.31 0.14Q58.17 0.05 58.03-2.86L58.03-2.86L58.03-8.58L59.20-8.58L59.20-3.19Q59.25-0.84 61.36-0.80L61.36-0.80Q63.66-0.84 63.66-3.19L63.66-3.19ZM72.28 0L71.44-2.48L67.97-2.48L67.08 0L65.91 0L69.14-8.58L70.45-8.58L73.55 0L72.28 0ZM69.70-7.31L68.34-3.52L71.02-3.52L69.75-7.31L69.70-7.31ZM82.83-8.58L82.83 0L81.70 0L81.70-5.06Q81.70-5.77 81.70-7.22L81.70-7.22L79.27 0L78.09 0L75.70-7.22L75.66-7.22Q75.66-6.70 75.70-5.67L75.70-5.67Q75.70-5.16 75.70-5.06L75.70-5.06L75.70 0L74.53 0L74.53-8.58L76.22-8.58L78.70-1.31L81.14-8.58L82.83-8.58ZM90.19 0L89.34-2.48L85.88-2.48L84.98 0L83.81 0L87.05-8.58L88.36-8.58L91.45 0L90.19 0ZM87.61-7.31L86.25-3.52L88.92-3.52L87.66-7.31L87.61-7.31ZM92.67-8.58L93.84-8.58L93.84 0L92.67 0L92.67-8.58Z" transform="translate(-0.1875, 8.578125)"></path></g></g></g></g></g><defs v-gra="od"></defs></svg>